<?xml version="1.0" encoding="UTF-8" standalone="no"?>
<svg
   xmlns:dc="http://purl.org/dc/elements/1.1/"
   xmlns:cc="http://creativecommons.org/ns#"
   xmlns:rdf="http://www.w3.org/1999/02/22-rdf-syntax-ns#"
   xmlns:svg="http://www.w3.org/2000/svg"
   xmlns="http://www.w3.org/2000/svg"
   viewBox="0 0 106.66667 53.333332"
   height="53.333332"
   width="106.66667"
   xml:space="preserve"
   id="svg2"
   version="1.1"><metadata
     id="metadata8"><rdf:RDF><cc:Work
         rdf:about=""><dc:format>image/svg+xml</dc:format><dc:type
           rdf:resource="http://purl.org/dc/dcmitype/StillImage" /></cc:Work></rdf:RDF></metadata><defs
     id="defs6"><clipPath
       id="clipPath18"
       clipPathUnits="userSpaceOnUse"><path
         id="path16"
         d="M 0,40 H 80 V 0 H 0 Z" /></clipPath></defs><g
     transform="matrix(1.3333333,0,0,-1.3333333,0,53.333333)"
     id="g10"><g
       id="g12"><g
         clip-path="url(#clipPath18)"
         id="g14"><g
           transform="translate(23.6495,25.6895)"
           id="g20"><path
             id="path22"
             style="fill:#000000;fill-opacity:1;fill-rule:nonzero;stroke:none"
             d="m 0,0 c 0.04,-2.394 0.082,-4.789 0.063,-7.184 -0.007,-0.925 0.361,-5.808 -0.385,-6.215 -0.725,-0.397 -2.642,3.021 -3.325,3.806 -1.057,1.215 -2.09,1.973 -3.568,2.562 -0.376,0.15 -0.826,-0.167 -0.923,-0.524 -0.772,-2.843 -1.545,-5.686 -2.317,-8.53 -0.253,-0.932 1.193,-1.33 1.446,-0.398 0.773,2.843 1.545,5.686 2.317,8.529 -0.307,-0.174 -0.615,-0.349 -0.922,-0.523 3.481,-1.387 4.199,-6.066 7.611,-7.225 0.254,-0.086 0.544,0.016 0.73,0.193 1.191,1.135 0.733,3.913 0.778,5.333 C 1.614,-6.785 1.556,-3.391 1.5,0 1.484,0.964 -0.016,0.967 0,0" /></g><g
           transform="translate(29.8268,17.7085)"
           id="g24"><path
             id="path26"
             style="fill:#000000;fill-opacity:1;fill-rule:nonzero;stroke:none"
             d="m 0,0 c 1.311,-1.378 2.156,-3.085 2.396,-4.979 0.119,-0.945 1.621,-0.957 1.5,0 C 3.604,-2.675 2.667,-0.627 1.061,1.061 0.394,1.761 -0.666,0.7 0,0" /></g><g
           transform="translate(40.5291,20.3849)"
           id="g28"><path
             id="path30"
             style="fill:#000000;fill-opacity:1;fill-rule:nonzero;stroke:none"
             d="M 0,0 C 3.264,-0.254 6.328,0.153 9.411,1.25 9.891,1.421 10.212,2.116 9.742,2.504 8.241,3.743 6.69,4.812 4.981,5.754 4.486,6.027 3.853,5.685 3.853,5.106 3.848,-0.052 3.844,-5.211 3.839,-10.37 c -10e-4,-0.965 1.499,-0.967 1.5,0 C 5.344,-5.211 5.348,-0.052 5.353,5.106 4.977,4.89 4.6,4.675 4.224,4.459 5.825,3.576 7.265,2.612 8.681,1.443 L 9.012,2.697 C 6.059,1.646 3.122,1.257 0,1.5 -0.963,1.575 -0.958,0.075 0,0" /></g><g
           transform="translate(43.3842,18.7739)"
           id="g32"><path
             id="path34"
             style="fill:#000000;fill-opacity:1;fill-rule:nonzero;stroke:none"
             d="m 0,0 c -0.72,-2.292 -1.774,-4.394 -3.159,-6.355 0.431,-0.252 0.863,-0.505 1.295,-0.757 0.866,1.302 1.829,2.515 2.898,3.657 0.659,0.704 -0.4,1.767 -1.061,1.06 -1.155,-1.234 -2.196,-2.552 -3.132,-3.96 -0.54,-0.811 0.745,-1.536 1.295,-0.757 1.455,2.061 2.554,4.307 3.31,6.713 C 1.737,0.524 0.289,0.919 0,0" /></g><g
           transform="translate(44.3093,16.4819)"
           id="g36"><path
             id="path38"
             style="fill:#000000;fill-opacity:1;fill-rule:nonzero;stroke:none"
             d="M 0,0 C 1.649,-0.28 3.166,-0.84 4.594,-1.713 5.42,-2.217 6.175,-0.921 5.351,-0.417 3.825,0.515 2.162,1.147 0.399,1.446 -0.545,1.607 -0.951,0.162 0,0" /></g><g
           transform="translate(49.3032,19.7152)"
           id="g40"><path
             id="path42"
             style="fill:#000000;fill-opacity:1;fill-rule:nonzero;stroke:none"
             d="m 0,0 c 2.613,0.051 8.826,-1.187 10.328,1.94 1.343,2.797 -2.719,4.592 -4.51,5.995 -0.46,0.36 -1.325,0.188 -1.28,-0.531 0.101,-1.625 1.013,-18.849 0.738,-18.813 -0.955,0.124 -0.946,-1.378 0,-1.5 2.463,-0.319 1.847,2.955 1.753,4.469 C 6.698,-3.158 6.368,2.123 6.038,7.404 5.611,7.228 5.184,7.051 4.757,6.874 5.411,6.362 6.066,5.85 6.72,5.337 8.231,4.154 9.326,4.347 7.335,2.66 5.245,0.89 2.659,1.552 0,1.5 -0.964,1.481 -0.967,-0.019 0,0" /></g><g
           transform="translate(52.8776,16.0042)"
           id="g44"><path
             id="path46"
             style="fill:#000000;fill-opacity:1;fill-rule:nonzero;stroke:none"
             d="m 0,0 c -1.408,-1.834 -2.913,-3.56 -4.522,-5.218 0.353,-0.354 0.707,-0.708 1.06,-1.061 1.46,1.708 3.162,3.779 5.481,4.282 2.648,0.575 5.379,-1.177 7.671,-2.204 0.874,-0.392 1.637,0.901 0.757,1.295 -2.477,1.11 -5.21,2.753 -8.02,2.479 -2.977,-0.29 -5.125,-2.657 -6.949,-4.791 -0.62,-0.725 0.379,-1.763 1.06,-1.061 1.699,1.751 3.272,3.588 4.757,5.522 C 1.883,0.008 0.58,0.756 0,0" /></g></g></g></g></svg>