<?xml version="1.0" encoding="UTF-8" standalone="no"?>
<svg
   xmlns:dc="http://purl.org/dc/elements/1.1/"
   xmlns:cc="http://creativecommons.org/ns#"
   xmlns:rdf="http://www.w3.org/1999/02/22-rdf-syntax-ns#"
   xmlns:svg="http://www.w3.org/2000/svg"
   xmlns="http://www.w3.org/2000/svg"
   viewBox="0 0 106.66667 53.333332"
   height="53.333332"
   width="106.66667"
   xml:space="preserve"
   id="svg2"
   version="1.1"><metadata
     id="metadata8"><rdf:RDF><cc:Work
         rdf:about=""><dc:format>image/svg+xml</dc:format><dc:type
           rdf:resource="http://purl.org/dc/dcmitype/StillImage" /></cc:Work></rdf:RDF></metadata><defs
     id="defs6"><clipPath
       id="clipPath18"
       clipPathUnits="userSpaceOnUse"><path
         id="path16"
         d="M 0,40 H 80 V 0 H 0 Z" /></clipPath></defs><g
     transform="matrix(1.3333333,0,0,-1.3333333,0,53.333333)"
     id="g10"><g
       id="g12"><g
         clip-path="url(#clipPath18)"
         id="g14"><g
           transform="translate(17.4408,31.5814)"
           id="g20"><path
             id="path22"
             style="fill:#000000;fill-opacity:1;fill-rule:nonzero;stroke:none"
             d="m 0,0 c -0.882,-1.963 -2.083,-3.702 -3.622,-5.209 -0.69,-0.676 0.371,-1.737 1.061,-1.06 1.624,1.59 2.924,3.438 3.856,5.512 C 1.688,0.116 0.395,0.88 0,0" /></g><g
           transform="translate(17.8412,28.3767)"
           id="g24"><path
             id="path26"
             style="fill:#000000;fill-opacity:1;fill-rule:nonzero;stroke:none"
             d="M 0,0 C 0.685,0.005 2.959,0.383 3.129,-0.553 3.214,-1.02 1.351,-3.101 1.081,-3.443 -0.207,-5.075 -1.64,-6.575 -3.172,-7.979 c -0.714,-0.653 0.349,-1.712 1.06,-1.061 2.416,2.214 5.19,4.951 6.646,7.941 C 6.077,2.07 1.862,1.513 0,1.5 -0.965,1.493 -0.967,-0.007 0,0" /></g><g
           transform="translate(19.8061,23.7223)"
           id="g28"><path
             id="path30"
             style="fill:#000000;fill-opacity:1;fill-rule:nonzero;stroke:none"
             d="m 0,0 c 3.46,-1.308 6.998,-2.272 10.644,-2.899 0.944,-0.163 1.35,1.283 0.399,1.446 C 7.397,-0.825 3.859,0.138 0.399,1.446 -0.505,1.788 -0.896,0.339 0,0" /></g><g
           transform="translate(13.2727,16.9496)"
           id="g32"><path
             id="path34"
             style="fill:#000000;fill-opacity:1;fill-rule:nonzero;stroke:none"
             d="m 0,0 c 1.943,-0.947 4.258,-1.933 6.463,-1.561 2.409,0.406 3.824,2.558 5.761,3.826 0.804,0.527 0.053,1.826 -0.758,1.295 C 10.109,2.671 9.067,1.343 7.689,0.508 5.505,-0.813 2.845,0.278 0.757,1.295 -0.107,1.716 -0.869,0.423 0,0" /></g><g
           transform="translate(25.0782,20.9996)"
           id="g36"><path
             id="path38"
             style="fill:#000000;fill-opacity:1;fill-rule:nonzero;stroke:none"
             d="m 0,0 c -2.944,-2.772 -6.15,-6.9 -10.577,-6.656 v -1.5 c 4.978,0.268 9.334,2.736 14.11,3.89 0.938,0.227 0.541,1.674 -0.398,1.447 -4.631,-1.119 -8.888,-3.577 -13.712,-3.837 -0.965,-0.052 -0.966,-1.446 0,-1.5 4.942,-0.272 8.356,4.006 11.638,7.095 C 1.765,-0.398 0.703,0.662 0,0" /></g><g
           transform="translate(18.5458,18.579)"
           id="g40"><path
             id="path42"
             style="fill:#000000;fill-opacity:1;fill-rule:nonzero;stroke:none"
             d="m 0,0 c 0.169,-3.864 1.793,-7.536 1.484,-11.428 0.317,0.241 0.633,0.482 0.95,0.723 l -0.677,0.271 c -0.896,0.359 -1.285,-1.091 -0.398,-1.446 l 0.676,-0.271 c 0.489,-0.196 0.915,0.291 0.949,0.723 C 3.295,-7.514 1.67,-3.875 1.5,0 1.458,0.962 -0.042,0.967 0,0" /></g><g
           transform="translate(17.3579,11.6782)"
           id="g44"><path
             id="path46"
             style="fill:#000000;fill-opacity:1;fill-rule:nonzero;stroke:none"
             d="m 0,0 c -1.128,-1.226 -1.961,-2.632 -2.501,-4.207 -0.314,-0.915 1.135,-1.308 1.446,-0.399 0.455,1.325 1.167,2.515 2.116,3.545 C 1.713,-0.351 0.655,0.712 0,0" /></g><g
           transform="translate(16.7509,6.7014)"
           id="g48"><path
             id="path50"
             style="fill:#000000;fill-opacity:1;fill-rule:nonzero;stroke:none"
             d="m 0,0 c 2.161,1.859 4.347,3.759 6.866,5.125 1.512,0.82 3.246,1.918 4.591,0.1 0.922,-1.245 0.1,-4.054 -0.362,-5.369 -0.321,-0.913 1.128,-1.305 1.446,-0.399 0.82,2.332 1.615,8.132 -2.089,8.454 C 8.627,8.069 6.45,6.67 4.984,5.753 2.818,4.398 0.872,2.723 -1.061,1.061 -1.794,0.43 -0.729,-0.627 0,0" /></g></g></g></g></svg>