<?xml version="1.0" encoding="UTF-8" standalone="no"?>
<svg
   xmlns:dc="http://purl.org/dc/elements/1.1/"
   xmlns:cc="http://creativecommons.org/ns#"
   xmlns:rdf="http://www.w3.org/1999/02/22-rdf-syntax-ns#"
   xmlns:svg="http://www.w3.org/2000/svg"
   xmlns="http://www.w3.org/2000/svg"
   viewBox="0 0 106.66667 53.333332"
   height="53.333332"
   width="106.66667"
   xml:space="preserve"
   id="svg2"
   version="1.1"><metadata
     id="metadata8"><rdf:RDF><cc:Work
         rdf:about=""><dc:format>image/svg+xml</dc:format><dc:type
           rdf:resource="http://purl.org/dc/dcmitype/StillImage" /></cc:Work></rdf:RDF></metadata><defs
     id="defs6"><clipPath
       id="clipPath18"
       clipPathUnits="userSpaceOnUse"><path
         id="path16"
         d="M 0,40 H 80 V 0 H 0 Z" /></clipPath></defs><g
     transform="matrix(1.3333333,0,0,-1.3333333,0,53.333333)"
     id="g10"><g
       id="g12"><g
         clip-path="url(#clipPath18)"
         id="g14"><g
           transform="translate(17.3519,26.9123)"
           id="g20"><path
             id="path22"
             style="fill:#000000;fill-opacity:1;fill-rule:nonzero;stroke:none"
             d="M 0,0 C 3.057,-0.08 6.075,0.155 9.086,0.685 10.035,0.852 9.633,2.298 8.687,2.131 5.807,1.625 2.922,1.423 0,1.5 -0.966,1.525 -0.965,0.025 0,0" /></g><g
           transform="translate(20.8313,30.8337)"
           id="g24"><path
             id="path26"
             style="fill:#000000;fill-opacity:1;fill-rule:nonzero;stroke:none"
             d="m 0,0 c -0.066,-2.817 -0.015,-5.63 0.153,-8.443 0.058,-0.959 1.558,-0.965 1.5,0 C 1.485,-5.63 1.434,-2.817 1.5,0 1.523,0.966 0.023,0.965 0,0" /></g><g
           transform="translate(16.7528,25.5568)"
           id="g28"><path
             id="path30"
             style="fill:#000000;fill-opacity:1;fill-rule:nonzero;stroke:none"
             d="m 0,0 v -1.809 c 0,-0.965 1.5,-0.967 1.5,0 V 0 C 1.5,0.965 0,0.967 0,0" /></g><g
           transform="translate(24.4384,24.3545)"
           id="g32"><path
             id="path34"
             style="fill:#000000;fill-opacity:1;fill-rule:nonzero;stroke:none"
             d="M 0,0 C 0.965,0 0.967,1.5 0,1.5 -0.965,1.5 -0.967,0 0,0" /></g><g
           transform="translate(13.5827,16.5142)"
           id="g36"><path
             id="path38"
             style="fill:#000000;fill-opacity:1;fill-rule:nonzero;stroke:none"
             d="m 0,0 h 7.84 c 0.965,0 0.967,1.5 0,1.5 H 0 C -0.965,1.5 -0.967,0 0,0" /></g><g
           transform="translate(16.8451,19.9714)"
           id="g40"><path
             id="path42"
             style="fill:#000000;fill-opacity:1;fill-rule:nonzero;stroke:none"
             d="m 0,0 c 0.458,-4.011 0.811,-8.029 1.061,-12.058 0.06,-0.959 1.56,-0.966 1.5,0 C 2.311,-8.029 1.958,-4.011 1.5,0 1.392,0.948 -0.109,0.959 0,0" /></g><g
           transform="translate(16.1497,13.8504)"
           id="g44"><path
             id="path46"
             style="fill:#000000;fill-opacity:1;fill-rule:nonzero;stroke:none"
             d="m 0,0 c -0.596,-1.24 -1.266,-2.437 -2.011,-3.594 -0.525,-0.814 0.773,-1.567 1.295,-0.757 0.745,1.157 1.415,2.354 2.011,3.594 C 1.712,0.109 0.419,0.871 0,0" /></g><g
           transform="translate(19.2892,11.7869)"
           id="g48"><path
             id="path50"
             style="fill:#000000;fill-opacity:1;fill-rule:nonzero;stroke:none"
             d="M 0,0 C 1.339,-0.497 2.618,-1.109 3.853,-1.827 4.689,-2.313 5.445,-1.017 4.61,-0.532 3.264,0.251 1.858,0.905 0.399,1.446 -0.507,1.783 -0.899,0.333 0,0" /></g><g
           transform="translate(24.2582,24.4537)"
           id="g52"><path
             id="path54"
             style="fill:#000000;fill-opacity:1;fill-rule:nonzero;stroke:none"
             d="M 0,0 C 1.201,-0.338 2.231,-0.961 3.095,-1.861 3.764,-2.559 4.824,-1.498 4.155,-0.8 3.12,0.279 1.839,1.042 0.399,1.446 -0.532,1.708 -0.929,0.261 0,0" /></g><g
           transform="translate(24.2877,16.3635)"
           id="g56"><path
             id="path58"
             style="fill:#000000;fill-opacity:1;fill-rule:nonzero;stroke:none"
             d="m 0,0 h 6.936 c 0.965,0 0.966,1.5 0,1.5 H 0 C -0.965,1.5 -0.967,0 0,0" /></g><g
           transform="translate(25.5602,19.6691)"
           id="g60"><path
             id="path62"
             style="fill:#000000;fill-opacity:1;fill-rule:nonzero;stroke:none"
             d="m 0,0 c 0.331,-3.593 0.966,-7.116 1.931,-10.593 0.258,-0.929 1.706,-0.535 1.447,0.398 C 2.449,-6.848 1.818,-3.459 1.5,0 1.412,0.953 -0.089,0.962 0,0" /></g><g
           transform="translate(25.1257,15.189)"
           id="g64"><path
             id="path66"
             style="fill:#000000;fill-opacity:1;fill-rule:nonzero;stroke:none"
             d="m 0,0 c -0.236,-0.916 -0.629,-1.775 -1.215,-2.522 -0.59,-0.752 0.465,-1.82 1.06,-1.061 0.75,0.956 1.298,2.004 1.601,3.184 C 1.687,0.537 0.241,0.936 0,0" /></g><g
           transform="translate(27.703,14.0945)"
           id="g68"><path
             id="path70"
             style="fill:#000000;fill-opacity:1;fill-rule:nonzero;stroke:none"
             d="m 0,0 c 1.214,-0.737 2.316,-1.606 3.318,-2.611 0.683,-0.685 1.744,0.375 1.061,1.06 C 3.29,-0.458 2.076,0.494 0.757,1.295 -0.07,1.798 -0.825,0.501 0,0" /></g><g
           transform="translate(46.1755,23.4342)"
           id="g72"><path
             id="path74"
             style="fill:#000000;fill-opacity:1;fill-rule:nonzero;stroke:none"
             d="m 0,0 c 0.45,-3.606 1.073,-7.175 1.887,-10.718 0.216,-0.94 1.662,-0.542 1.446,0.399 C 2.55,-6.908 1.934,-3.473 1.5,0 1.382,0.945 -0.12,0.957 0,0" /></g><g
           transform="translate(47.9321,22.5208)"
           id="g76"><path
             id="path78"
             style="fill:#000000;fill-opacity:1;fill-rule:nonzero;stroke:none"
             d="m 0,0 c 2.982,0.087 5.806,0.581 8.747,0.968 0.63,0.155 1.271,0.201 1.924,0.138 1.354,0.417 2.179,-0.155 2.474,-1.717 1.074,-1.685 1.126,-1.776 1.167,-3.45 0.041,-1.706 0.033,-3.41 0.001,-5.115 -0.019,-0.966 1.481,-0.966 1.5,0 0.059,3.096 1.155,9.144 -2.028,11.174 C 12.465,2.839 10.967,2.793 9.477,2.605 6.295,2.202 3.222,1.594 0,1.5 -0.963,1.472 -0.967,-0.028 0,0" /></g><g
           transform="translate(53.3568,16.3779)"
           id="g80"><path
             id="path82"
             style="fill:#000000;fill-opacity:1;fill-rule:nonzero;stroke:none"
             d="m 0,0 c 2.014,-0.074 4.023,-0.041 6.033,0.098 0.958,0.066 0.965,1.567 0,1.5 C 4.023,1.459 2.014,1.426 0,1.5 -0.965,1.535 -0.964,0.035 0,0" /></g><g
           transform="translate(54.8616,19.2238)"
           id="g84"><path
             id="path86"
             style="fill:#000000;fill-opacity:1;fill-rule:nonzero;stroke:none"
             d="M 0,0 C 0.003,-0.929 0.007,-1.858 0.01,-2.787 0.012,-3.251 0.013,-3.716 0.015,-4.18 0.017,-4.633 -0.151,-4.989 0.29,-5.152 L 0.091,-6.625 c 1.076,-0.002 2.152,-0.003 3.228,-0.005 0.966,-0.001 0.967,1.499 0,1.5 -1.076,0.002 -2.152,0.003 -3.228,0.005 -0.885,0.001 -0.968,-1.19 -0.2,-1.473 0.964,-0.355 1.533,0.473 1.62,1.325 C 1.687,-3.556 1.506,-1.726 1.5,0 1.497,0.965 -0.003,0.967 0,0" /></g></g></g></g></svg>