<?xml version="1.0" encoding="UTF-8" standalone="no"?>
<svg
   xmlns:dc="http://purl.org/dc/elements/1.1/"
   xmlns:cc="http://creativecommons.org/ns#"
   xmlns:rdf="http://www.w3.org/1999/02/22-rdf-syntax-ns#"
   xmlns:svg="http://www.w3.org/2000/svg"
   xmlns="http://www.w3.org/2000/svg"
   viewBox="0 0 106.66667 53.333332"
   height="53.333332"
   width="106.66667"
   xml:space="preserve"
   id="svg2"
   version="1.1"><metadata
     id="metadata8"><rdf:RDF><cc:Work
         rdf:about=""><dc:format>image/svg+xml</dc:format><dc:type
           rdf:resource="http://purl.org/dc/dcmitype/StillImage" /></cc:Work></rdf:RDF></metadata><defs
     id="defs6"><clipPath
       id="clipPath18"
       clipPathUnits="userSpaceOnUse"><path
         id="path16"
         d="M 0,40 H 80 V 0 H 0 Z" /></clipPath></defs><g
     transform="matrix(1.3333333,0,0,-1.3333333,0,53.333333)"
     id="g10"><g
       id="g12"><g
         clip-path="url(#clipPath18)"
         id="g14"><g
           transform="translate(13.6636,23.1979)"
           id="g20"><path
             id="path22"
             style="fill:#000000;fill-opacity:1;fill-rule:nonzero;stroke:none"
             d="m 0,0 c 5.466,0.032 10.899,0.399 16.32,1.102 0.944,0.123 0.956,1.624 0,1.5 C 10.899,1.899 5.466,1.532 0,1.5 -0.965,1.494 -0.967,-0.006 0,0" /></g><g
           transform="translate(20.5948,28.6386)"
           id="g24"><path
             id="path26"
             style="fill:#000000;fill-opacity:1;fill-rule:nonzero;stroke:none"
             d="m 0,0 c -0.058,-6.288 -1.416,-12.248 -4.115,-17.926 -0.412,-0.867 0.881,-1.629 1.296,-0.757 C -0.013,-12.778 1.44,-6.536 1.5,0 1.509,0.965 0.009,0.966 0,0" /></g><g
           transform="translate(21.5284,18.7244)"
           id="g28"><path
             id="path30"
             style="fill:#000000;fill-opacity:1;fill-rule:nonzero;stroke:none"
             d="m 0,0 c 3.6,-2.24 6.987,-4.758 10.164,-7.567 0.72,-0.638 1.785,0.419 1.06,1.06 C 7.953,-3.614 4.465,-1.012 0.757,1.295 -0.065,1.807 -0.819,0.509 0,0" /></g><g
           transform="translate(53.7016,33.045)"
           id="g32"><path
             id="path34"
             style="fill:#000000;fill-opacity:1;fill-rule:nonzero;stroke:none"
             d="m 0,0 c -1.606,-0.599 -4.867,-1.356 -5.467,-3.106 -0.382,-1.114 0.219,-2.986 0.404,-4.164 0.266,-1.695 0.626,-3.37 1.037,-5.036 0.231,-0.937 1.678,-0.54 1.447,0.399 -0.533,2.156 -0.973,4.329 -1.252,6.534 -0.155,1.231 -0.486,1.644 0.693,2.403 1.056,0.68 2.371,1.089 3.537,1.524 C 1.295,-1.112 0.907,0.338 0,0" /></g><g
           transform="translate(50.0626,27.7862)"
           id="g36"><path
             id="path38"
             style="fill:#000000;fill-opacity:1;fill-rule:nonzero;stroke:none"
             d="M 0,0 C 1.635,0.079 3.27,0.138 4.907,0.168 6.052,0.189 6.367,0.253 6.771,-0.858 7.025,-1.557 7.064,-2.434 7.2,-3.166 7.377,-4.114 8.823,-3.712 8.647,-2.767 8.409,-1.492 8.529,1.334 6.947,1.664 5.965,1.869 4.683,1.667 3.68,1.641 2.453,1.608 1.226,1.559 0,1.5 -0.961,1.454 -0.967,-0.046 0,0" /></g><g
           transform="translate(50.0614,24.8764)"
           id="g40"><path
             id="path42"
             style="fill:#000000;fill-opacity:1;fill-rule:nonzero;stroke:none"
             d="m 0,0 c 2.178,0.057 4.356,0.113 6.534,0.17 0.963,0.025 0.967,1.525 0,1.5 C 4.356,1.613 2.178,1.557 0,1.5 -0.963,1.475 -0.967,-0.025 0,0" /></g><g
           transform="translate(50.3417,21.8765)"
           id="g44"><path
             id="path46"
             style="fill:#000000;fill-opacity:1;fill-rule:nonzero;stroke:none"
             d="M 0,0 C 2.354,-0.17 4.675,-0.069 7.01,0.265 7.962,0.401 7.557,1.847 6.611,1.711 4.415,1.397 2.212,1.34 0,1.5 -0.963,1.57 -0.959,0.069 0,0" /></g><g
           transform="translate(49.3662,18.3762)"
           id="g48"><path
             id="path50"
             style="fill:#000000;fill-opacity:1;fill-rule:nonzero;stroke:none"
             d="M 0,0 C 2.698,-0.128 5.35,0.119 7.981,0.726 8.921,0.943 8.523,2.39 7.582,2.173 5.079,1.595 2.564,1.378 0,1.5 -0.965,1.546 -0.963,0.046 0,0" /></g><g
           transform="translate(51.1842,15.7424)"
           id="g52"><path
             id="path54"
             style="fill:#000000;fill-opacity:1;fill-rule:nonzero;stroke:none"
             d="m 0,0 c 2.769,0.266 5.538,0.532 8.307,0.798 0.264,0.025 1.471,0.308 1.662,0.16 0.191,-0.149 0.382,-1.313 0.442,-1.599 0.148,-0.697 0.37,-1.768 0.008,-2.468 -0.741,-1.436 -2.058,-1.605 -3.472,-1.494 -0.963,0.075 -0.958,-1.425 0,-1.5 4.227,-0.332 5.833,2.685 4.732,6.535 C 11.127,2.36 10.678,2.526 8.723,2.338 5.815,2.059 2.908,1.779 0,1.5 -0.952,1.409 -0.962,-0.092 0,0" /></g><g
           transform="translate(52.6037,14.661)"
           id="g56"><path
             id="path58"
             style="fill:#000000;fill-opacity:1;fill-rule:nonzero;stroke:none"
             d="m 0,0 c 0.135,-1.113 0.269,-2.226 0.404,-3.338 0.115,-0.947 1.616,-0.958 1.5,0 C 1.769,-2.226 1.635,-1.113 1.5,0 1.385,0.946 -0.116,0.958 0,0" /></g><g
           transform="translate(48.0544,12.7185)"
           id="g60"><path
             id="path62"
             style="fill:#000000;fill-opacity:1;fill-rule:nonzero;stroke:none"
             d="m 0,0 c 0.155,-2.021 0.171,-3.548 2.731,-3.205 2.345,0.315 5.391,1.487 7.401,2.741 -0.303,0.04 -0.606,0.079 -0.909,0.118 0.347,-0.376 0.695,-0.752 1.042,-1.129 0.657,-0.71 1.715,0.353 1.061,1.061 -0.348,0.376 -0.695,0.752 -1.043,1.128 C 10.064,0.951 9.647,1.002 9.375,0.832 8.055,0.008 6.486,-0.425 5.027,-0.95 4.417,-1.169 3.797,-1.426 3.167,-1.586 1.584,-1.987 1.595,-1.242 1.5,0 1.426,0.956 -0.074,0.964 0,0" /></g></g></g></g></svg>