<?xml version="1.0" encoding="UTF-8" standalone="no"?>
<svg
   xmlns:dc="http://purl.org/dc/elements/1.1/"
   xmlns:cc="http://creativecommons.org/ns#"
   xmlns:rdf="http://www.w3.org/1999/02/22-rdf-syntax-ns#"
   xmlns:svg="http://www.w3.org/2000/svg"
   xmlns="http://www.w3.org/2000/svg"
   viewBox="0 0 106.66667 53.333332"
   height="53.333332"
   width="106.66667"
   xml:space="preserve"
   id="svg2"
   version="1.1"><metadata
     id="metadata8"><rdf:RDF><cc:Work
         rdf:about=""><dc:format>image/svg+xml</dc:format><dc:type
           rdf:resource="http://purl.org/dc/dcmitype/StillImage" /></cc:Work></rdf:RDF></metadata><defs
     id="defs6"><clipPath
       id="clipPath18"
       clipPathUnits="userSpaceOnUse"><path
         id="path16"
         d="M 0,40 H 80 V 0 H 0 Z" /></clipPath></defs><g
     transform="matrix(1.3333333,0,0,-1.3333333,0,53.333333)"
     id="g10"><g
       id="g12"><g
         clip-path="url(#clipPath18)"
         id="g14"><g
           transform="translate(18.8445,30.8984)"
           id="g20"><path
             id="path22"
             style="fill:#000000;fill-opacity:1;fill-rule:nonzero;stroke:none"
             d="m 0,0 c 1.405,-0.301 2.441,-1.02 3.176,-2.259 0.149,0.367 0.299,0.734 0.448,1.101 -2.658,-0.91 -5.368,-1.552 -8.152,-1.933 -0.952,-0.13 -0.547,-1.576 0.399,-1.446 2.784,0.38 5.493,1.023 8.152,1.933 0.451,0.154 0.708,0.664 0.448,1.102 C 3.55,0.05 2.167,1.068 0.399,1.446 -0.543,1.648 -0.945,0.202 0,0" /></g><g
           transform="translate(13.9971,26.1603)"
           id="g24"><path
             id="path26"
             style="fill:#000000;fill-opacity:1;fill-rule:nonzero;stroke:none"
             d="m 0,0 c 4.284,-0.106 8.553,0.027 12.821,0.401 -0.126,0.466 -0.252,0.931 -0.378,1.397 -0.56,-0.269 -1.12,-0.538 -1.68,-0.807 -0.87,-0.419 -0.11,-1.712 0.757,-1.296 0.56,0.27 1.12,0.539 1.68,0.808 0.657,0.316 0.353,1.462 -0.379,1.398 C 8.553,1.527 4.284,1.394 0,1.5 -0.966,1.524 -0.965,0.024 0,0" /></g><g
           transform="translate(17.8168,23.5262)"
           id="g28"><path
             id="path30"
             style="fill:#000000;fill-opacity:1;fill-rule:nonzero;stroke:none"
             d="M 0,0 C 0.484,-0.69 0.896,-1.405 1.215,-2.187 1.51,-2.912 2.714,-2.905 2.688,-1.988 2.665,-1.18 2.567,-0.297 2.663,0.508 2.794,1.598 3.684,1.724 4.649,1.936 5.078,2.03 5.064,2.16 5.079,1.572 5.089,1.207 5.089,0.872 5.006,0.511 4.834,-0.236 4.408,-0.904 3.802,-1.372 3.233,-1.812 3.381,-2.736 4.181,-2.77 5.058,-2.808 5.825,-2.603 6.57,-2.139 7.281,-1.696 6.83,-0.538 5.992,-0.768 5.379,-0.937 4.842,-1.182 4.323,-1.553 3.544,-2.109 4.292,-3.411 5.08,-2.848 5.494,-2.552 5.897,-2.35 6.391,-2.215 6.198,-1.758 6.006,-1.301 5.813,-0.844 5.284,-1.173 4.802,-1.297 4.181,-1.27 4.307,-1.736 4.433,-2.202 4.559,-2.668 5.632,-1.839 6.361,-0.741 6.542,0.623 6.663,1.543 6.626,3.099 5.552,3.476 4.959,3.683 4.203,3.379 3.644,3.223 3.023,3.049 2.273,2.891 1.767,2.458 0.694,1.539 1.153,-0.775 1.188,-1.988 1.679,-1.921 2.17,-1.855 2.661,-1.788 2.292,-0.884 1.857,-0.044 1.295,0.757 0.745,1.542 -0.556,0.793 0,0" /></g><g
           transform="translate(15.1806,18.553)"
           id="g32"><path
             id="path34"
             style="fill:#000000;fill-opacity:1;fill-rule:nonzero;stroke:none"
             d="m 0,0 c -0.16,-2.58 0.017,-5.121 0.502,-7.659 0.162,-0.847 1.465,-0.626 1.473,0.2 l 0.024,2.422 c 0.009,0.965 -1.491,0.966 -1.5,0 C 0.491,-5.845 0.483,-6.652 0.475,-7.459 0.966,-7.393 1.457,-7.326 1.948,-7.26 1.488,-4.852 1.349,-2.445 1.5,0 1.56,0.964 0.059,0.961 0,0" /></g><g
           transform="translate(18.5596,17.8714)"
           id="g36"><path
             id="path38"
             style="fill:#000000;fill-opacity:1;fill-rule:nonzero;stroke:none"
             d="M 0,0 C 1.739,0.253 3.482,0.465 5.232,0.618 6.565,0.734 8.919,1.463 9.562,0.039 10.115,-1.186 9.953,-2.989 9.841,-4.307 9.817,-4.584 9.021,-9.061 8.76,-8.818 8.053,-8.162 6.99,-9.22 7.699,-9.879 c 3.548,-3.297 3.784,7.217 3.625,8.63 C 11.136,0.417 10.88,2.212 9.011,2.367 5.993,2.618 2.587,1.881 -0.399,1.446 -1.35,1.308 -0.946,-0.138 0,0" /></g><g
           transform="translate(19.1543,14.7321)"
           id="g40"><path
             id="path42"
             style="fill:#000000;fill-opacity:1;fill-rule:nonzero;stroke:none"
             d="m 0,0 c 0.002,-0.862 0.003,-1.723 0.005,-2.585 h 1.5 C 1.416,-1.122 1.495,1.055 3.199,1.611 3.665,1.762 3.736,1.784 3.916,1.395 4.051,1.103 3.995,0.564 4.015,0.227 4.065,-0.623 4.109,-1.777 3.047,-1.985 2.188,-2.153 2.433,-3.425 3.246,-3.458 4.093,-3.492 4.94,-3.526 5.788,-3.56 c 0.965,-0.039 0.963,1.461 0,1.5 -0.848,0.034 -1.695,0.068 -2.542,0.102 0.067,-0.491 0.133,-0.982 0.2,-1.473 1.44,0.282 2.056,1.638 2.094,2.985 C 5.571,0.641 5.703,2.702 4.428,3.117 3.208,3.514 1.828,2.77 1.062,1.852 0.037,0.62 -0.088,-1.05 0.005,-2.585 c 0.058,-0.956 1.502,-0.974 1.5,0 C 1.503,-1.723 1.502,-0.862 1.5,0 1.498,0.965 -0.002,0.967 0,0" /></g><g
           transform="translate(57.1599,32.8259)"
           id="g44"><path
             id="path46"
             style="fill:#000000;fill-opacity:1;fill-rule:nonzero;stroke:none"
             d="m 0,0 c -2.374,-1.217 -4.748,-2.434 -7.123,-3.651 -0.859,-0.441 -0.101,-1.736 0.757,-1.296 2.375,1.218 4.749,2.435 7.123,3.652 C 1.616,-0.855 0.858,0.44 0,0" /></g><g
           transform="translate(48.2447,29.5852)"
           id="g48"><path
             id="path50"
             style="fill:#000000;fill-opacity:1;fill-rule:nonzero;stroke:none"
             d="m 0,0 c 0.147,-3.601 0.039,-7.186 -0.326,-10.772 -0.097,-0.959 1.404,-0.952 1.5,0 C 1.539,-7.186 1.647,-3.601 1.5,0 1.461,0.962 -0.039,0.967 0,0" /></g><g
           transform="translate(49.672,26.7999)"
           id="g52"><path
             id="path54"
             style="fill:#000000;fill-opacity:1;fill-rule:nonzero;stroke:none"
             d="M 0,0 C 2.023,0.872 4.138,1.478 6.327,1.744 7.329,1.867 8.514,2.234 8.874,1.127 9.195,0.14 8.75,-1.5 8.545,-2.445 8.341,-3.387 9.786,-3.789 9.991,-2.844 10.343,-1.223 11.404,3.081 8.971,3.414 5.839,3.844 2.054,2.507 -0.757,1.295 -1.641,0.914 -0.878,-0.379 0,0" /></g><g
           transform="translate(51.6235,24.6661)"
           id="g56"><path
             id="path58"
             style="fill:#000000;fill-opacity:1;fill-rule:nonzero;stroke:none"
             d="m 0,0 h 7.645 c 0.965,0 0.967,1.5 0,1.5 H 0 C -0.965,1.5 -0.967,0 0,0" /></g><g
           transform="translate(52.1448,21.7123)"
           id="g60"><path
             id="path62"
             style="fill:#000000;fill-opacity:1;fill-rule:nonzero;stroke:none"
             d="m 0,0 h 6.603 c 0.965,0 0.966,1.5 0,1.5 H 0 C -0.965,1.5 -0.967,0 0,0" /></g><g
           transform="translate(50.7548,17.8897)"
           id="g64"><path
             id="path66"
             style="fill:#000000;fill-opacity:1;fill-rule:nonzero;stroke:none"
             d="m 0,0 h 6.776 c 0.966,0 0.967,1.5 0,1.5 H 0 C -0.965,1.5 -0.967,0 0,0" /></g><g
           transform="translate(49.3735,15.1627)"
           id="g68"><path
             id="path70"
             style="fill:#000000;fill-opacity:1;fill-rule:nonzero;stroke:none"
             d="M 0,0 C 1.425,-0.163 2.785,-0.116 4.207,0.073 6.05,0.318 8.211,1.068 10.057,0.564 15.933,-1.04 11.02,-9.752 5.922,-5.963 5.147,-5.386 4.398,-6.688 5.165,-7.258 9.08,-10.168 14.564,-7.298 14.28,-2.361 13.862,4.9 4.167,1.023 0,1.5 -0.957,1.61 -0.95,0.109 0,0" /></g><g
           transform="translate(50.0006,12.906)"
           id="g72"><path
             id="path74"
             style="fill:#000000;fill-opacity:1;fill-rule:nonzero;stroke:none"
             d="M 0,0 C -0.041,-1.182 0.093,-2.353 0.392,-3.497 0.636,-4.43 2.083,-4.035 1.838,-3.098 1.571,-2.076 1.463,-1.055 1.5,0 1.534,0.965 0.034,0.964 0,0" /></g><g
           transform="translate(46.1097,11.211)"
           id="g76"><path
             id="path78"
             style="fill:#000000;fill-opacity:1;fill-rule:nonzero;stroke:none"
             d="m 0,0 c -0.541,-0.897 -0.348,-1.915 0.536,-2.514 1.395,-0.945 3.073,0.076 4.497,0.396 1.227,0.276 2.355,0.168 3.58,0.22 0.424,0.019 0.823,-0.005 1.172,0.277 1.013,0.819 0.183,2.479 -0.333,3.346 C 8.959,2.554 7.662,1.8 8.157,0.968 8.402,0.613 8.578,0.225 8.684,-0.196 8.638,-0.534 8.403,-0.588 7.981,-0.357 7.333,-0.445 6.642,-0.366 5.983,-0.445 5.319,-0.525 4.664,-0.648 4.019,-0.826 4.017,-0.827 0.642,-1.84 1.295,-0.757 1.795,0.072 0.499,0.826 0,0" /></g></g></g></g></svg>